<?xml version="1.0" encoding="utf-8"?>
<svg xmlns="http://www.w3.org/2000/svg" viewBox="0 0 48 48" width="144" height="144">
  <path d="M8.5 11 A 1.50015 1.50015 0 0 0 7 12.5L7 15L2.5 15 A 1.50015 1.50015 0 0 0 1 16.5L1 32.5 A 1.50015 1.50015 0 0 0 2.5 34L7 34L7 36.5 A 1.50015 1.50015 0 0 0 8.5 38L14.5 38 A 1.50015 1.50015 0 0 0 16 36.5L16 29L32 29L32 36.5 A 1.50015 1.50015 0 0 0 33.5 38L39.5 38 A 1.50015 1.50015 0 0 0 41 36.5L41 34L45.5 34 A 1.50015 1.50015 0 0 0 47 32.5L47 16.5 A 1.50015 1.50015 0 0 0 45.5 15L41 15L41 12.5 A 1.50015 1.50015 0 0 0 39.5 11L33.5 11 A 1.50015 1.50015 0 0 0 32 12.5L32 20L16 20L16 12.5 A 1.50015 1.50015 0 0 0 14.5 11L8.5 11 z M 10 14L13 14L13 21.5L13 27.5L13 35L10 35L10 32.5L10 16.5L10 14 z M 35 14L38 14L38 16.5L38 32.5L38 35L35 35L35 27.5L35 21.5L35 14 z M 4 18L7 18L7 31L4 31L4 18 z M 41 18L44 18L44 31L41 31L41 18 z M 16 23L32 23L32 26L16 26L16 23 z" fill="#5B5B5B" />
</svg>