<?xml version="1.0" encoding="utf-8"?>
<svg xmlns="http://www.w3.org/2000/svg" viewBox="0 0 48 48" width="144" height="144">
  <path d="M17 21.5H31V27.5H17zM6 34H2c-.552 0-1-.448-1-1V16c0-.552.448-1 1-1h4c.552 0 1 .448 1 1v17C7 33.552 6.552 34 6 34zM14 38h-4c-.552 0-1-.448-1-1V12c0-.552.448-1 1-1h4c.552 0 1 .448 1 1v25C15 37.552 14.552 38 14 38zM42 15h4c.552 0 1 .448 1 1v17c0 .552-.448 1-1 1h-4c-.552 0-1-.448-1-1V16C41 15.448 41.448 15 42 15zM34 11h4c.552 0 1 .448 1 1v25c0 .552-.448 1-1 1h-4c-.552 0-1-.448-1-1V12C33 11.448 33.448 11 34 11z" fill="#5B5B5B" />
</svg>