<?xml version="1.0" encoding="utf-8"?>
<svg xmlns="http://www.w3.org/2000/svg" viewBox="0 0 48 48" width="144" height="144">
  <path d="M21 6C12.739414 6 6 12.73942 6 21C6 29.26058 12.739414 36 21 36C24.410083 36 27.52431 34.806849 30.048828 32.876953L38.585938 41.414062 A 2.0002 2.0002 0 1 0 41.414062 38.585938L32.876953 30.048828C34.806847 27.524308 36 24.410081 36 21C36 12.73942 29.260586 6 21 6 z M 21 10C27.098827 10 32 14.901177 32 21C32 27.098823 27.098827 32 21 32C14.901173 32 10 27.098823 10 21C10 14.901177 14.901173 10 21 10 z M 15 19 A 2 2 0 0 0 15 23 A 2 2 0 0 0 15 19 z M 21 19 A 2 2 0 0 0 21 23 A 2 2 0 0 0 21 19 z M 27 19 A 2 2 0 0 0 27 23 A 2 2 0 0 0 27 19 z" fill="#5B5B5B" />
</svg>